Coordinates
version=1
nRows=6
nColumns=36
inDegrees=yes

Units are S.I. units (second, meters, Newtons, ...)
If the header above contains a line with 'inDegrees', this indicates whether rotational values are in degrees (yes) or radians (no).

endheader
time	pelvis_tilt	pelvis_list	pelvis_rotation	pelvis_tx	pelvis_ty	pelvis_tz	hip_flexion_r	hip_adduction_r	hip_rotation_r	knee_angle_r	knee_angle_r_beta	ankle_angle_r	subtalar_angle_r	mtp_angle_r	hip_flexion_l	hip_adduction_l	hip_rotation_l	knee_angle_l	knee_angle_l_beta	ankle_angle_l	subtalar_angle_l	mtp_angle_l	lumbar_extension	lumbar_bending	lumbar_rotation	arm_flex_r	arm_add_r	arm_rot_r	elbow_flex_r	pro_sup_r	arm_flex_l	arm_add_l	arm_rot_l	elbow_flex_l	pro_sup_l
      7.95000000	     -5.24819207	      2.17235650	     -2.19945718	      0.12942044	      0.84695373	      0.11798531	      3.33580025	     -8.10382765	    -20.59895180	      4.49613699	      0.07847239	      1.76036974	    -13.68906054	     -7.49999987	      7.22898658	    -10.43464440	    -20.22213552	      5.12805378	      0.08950142	     -2.55451076	     -1.80958549	     -7.49999987	      2.56140087	      0.67396857	     -2.60458783	     84.40788111	     -5.41321927	     68.02291120	    112.90608317	     80.32028079	     88.56638563	     -5.30146027	     74.03758349	    121.42418007	     80.08420908
      7.96666670	     -5.48679107	      2.10188152	     -1.87961638	      0.12777972	      0.84328817	      0.11732074	      4.08326987	     -8.18890924	    -20.33122289	      5.29399774	      0.09239769	      1.86059154	    -14.57796211	     -7.49999987	      8.13111112	    -10.53970557	    -19.71912471	      5.76741597	      0.10066040	     -1.96814259	     -1.98615170	     -7.49999987	      2.29931265	      0.79578151	     -3.17722366	     84.88294821	     -5.07090620	     67.91296966	    111.61419293	     78.49591728	     89.25666508	     -5.53995305	     74.43767833	    120.22512742	     78.26556364
      7.98333330	     -5.72563132	      2.04299125	     -1.63539096	      0.12210022	      0.84584784	      0.11590232	      5.01392965	     -8.29089317	    -19.63056906	      6.27008538	      0.10943363	      2.24524544	    -15.72804475	     -7.49999987	      9.12679205	    -10.64619320	    -19.28599120	      6.52166971	      0.11382461	     -1.32548518	     -2.35829726	     -7.49999987	      1.79440135	      1.01845557	     -4.00741298	     85.16431345	     -4.50805266	     67.81362988	    112.01840828	     83.54452037	     90.03419581	     -5.67973288	     75.22536221	    121.58580800	     83.81198031
      8.00000000	     -6.11857551	      1.98599938	     -1.64573025	      0.11834119	      0.83616752	      0.11303843	      6.46173606	     -8.57423284	    -19.13652704	      7.80846999	      0.13628351	      3.17522560	    -16.74328115	     -7.49999987	     10.45974337	    -10.88240581	    -18.77112680	      7.89707287	      0.13782992	     -0.19079339	     -3.08913520	     -7.49999987	      1.30114462	      1.24352959	     -4.18391886	     86.49512146	     -4.04027512	     67.23428588	    111.56324889	     81.57943743	     91.25367867	     -5.85476114	     75.09154556	    119.91133299	     81.80011732
      8.01666670	     -6.37710747	      1.96995603	     -1.64051142	      0.11425257	      0.84051316	      0.11279761	      7.83541243	     -8.87174546	    -18.40290428	      9.48509945	      0.16554622	      3.73036517	    -18.26399924	     -7.49999987	     11.82920879	    -11.09362949	    -17.93173276	      9.58223946	      0.16724163	      0.69013345	     -4.56438669	     -7.49999987	      0.63680739	      1.34915855	     -4.00404923	     87.50634740	     -3.89851094	     67.36412649	    110.63707763	     81.83027700	     92.03431817	     -5.76744906	     76.21885800	    117.36869847	     81.72722255
      8.03333330	     -6.74182324	      1.98300780	     -1.59700190	      0.11057170	      0.84830873	      0.11256804	      9.51966108	     -9.25990858	    -17.88082900	     11.54140172	      0.20143546	      4.35154940	    -19.41551073	     -7.49999987	     13.42806086	    -11.34918080	    -17.27882328	     11.58296184	      0.20216082	      1.66062322	     -5.59970845	     -7.49999987	      0.14907257	      1.39552152	     -4.29437931	     87.18515032	     -3.72145128	     67.88103657	    109.86534686	     80.67435304	     92.08802727	     -6.16026710	     78.33241333	    113.85622701	     79.15057367
